# xmcd CD database file
#
# Track frame offsets:
#	150
#	19718
#	38373
#	53677
#	69292
#	93202
#	115661
#	130763
#	145760
#	164555
#	181496
#	204035
#
# Disc length: 2902 seconds
#
# Revision: 0
# Processed by: cddbd v1.4PL0 Copyright (c) Steve Scherf et al.
# Submitted via: NeoAudio 1.40Release
#
DISCID=8e0b540c
DTITLE=Delany - Sounds From Home
DYEAR=2001
DGENRE=Blues
TTITLE0=Funky
TTITLE1=Kiss
TTITLE2=Free
TTITLE3=Mississippi
TTITLE4=Locked Up in Alabama
TTITLE5=How Do You Know
TTITLE6=It's Over
TTITLE7=Let It Rain
TTITLE8=Kim Carmel
TTITLE9=Aidee Aidee Idee Oh
TTITLE10=Rock-n-Roll Lane
TTITLE11=Brown Paper Bag
EXTD=YEAR: 2001 ID3G: 0
EXTT0=
EXTT1=
EXTT2=
EXTT3=
EXTT4=
EXTT5=
EXTT6=
EXTT7=
EXTT8=
EXTT9=
EXTT10=
EXTT11=
PLAYORDER=
